<svg width="346" height="57" viewBox="0 0 346 57" fill="none" xmlns="http://www.w3.org/2000/svg">
<path d="M15.718 0V16.5825H27.4278V23.184H15.718V42.9885C15.718 47.2325 17.9971 49.5901 21.848 49.5901H27.4278V56.1918H21.2192C13.2031 56.1918 8.09475 51.3192 8.09475 43.2244V23.184H0V16.5825H8.09475V0H15.718Z" fill="#222222"/>
<path d="M67.7447 43.3036C66.3301 51.4768 59.1785 56.821 49.4333 56.821C37.1735 56.821 29.5503 47.1545 29.5503 36.1518C29.5503 25.0707 36.4661 15.9543 48.6476 15.9543C60.9074 15.9543 67.4304 24.6777 67.4304 34.7372C67.4304 35.7589 67.3519 37.0165 67.2734 37.7236H37.0162C37.6449 45.1896 42.5175 50.298 49.4333 50.298C55.2491 50.298 59.0212 47.7832 60.1215 43.3036H67.7447ZM37.252 32.1439H59.7286C59.257 26.0925 55.1704 22.0843 48.6476 22.0843C42.439 22.0843 38.4308 25.5422 37.252 32.1439Z" fill="#222222"/>
<path d="M106.253 30.6505V56.1923H98.6299V49.7479C96.7437 53.9918 91.7138 56.821 85.7412 56.821C77.6464 56.821 72.3021 51.9484 72.3021 44.8753C72.3021 37.252 78.3538 32.5367 87.7059 32.5367H95.9578C97.7654 32.5367 98.6299 31.5937 98.6299 30.1792C98.6299 25.3851 95.1718 22.0843 89.042 22.0843C83.5407 22.0843 79.5325 25.5422 79.2967 29.5503H72.2236C72.8523 21.7699 79.9254 15.9543 89.2775 15.9543C99.4943 15.9543 106.253 21.8485 106.253 30.6505ZM98.6299 38.8239V37.8809H88.4131C83.2261 37.8809 79.8469 40.5528 79.8469 44.7182C79.8469 48.3333 82.8333 50.7696 87.2343 50.7696C94.4644 50.7696 98.6299 46.1328 98.6299 38.8239Z" fill="#222222"/>
<path d="M111.597 36.3876C111.597 25.4637 118.749 15.9543 131.244 15.9543C140.518 15.9543 148.534 21.4556 149.634 30.4147H142.011C141.304 25.9352 136.745 22.6344 131.401 22.6344C123.464 22.6344 119.538 28.7643 119.538 36.3876C119.538 44.0108 123.546 50.141 131.401 50.141C136.824 50.141 140.832 47.3116 142.09 42.832H149.634C148.377 51.1624 141.304 56.821 131.244 56.821C118.749 56.821 111.597 47.3116 111.597 36.3876Z" fill="#222222"/>
<path d="M154.503 0H162.127V23.5769C164.252 18.6258 168.968 15.9537 174.862 15.9537C183.821 15.9537 189.637 22.3981 189.637 31.8288V56.1918H182.014V33.3221C182.014 27.0349 178.32 22.791 172.74 22.791C166.532 22.791 162.13 27.8208 162.13 34.7367V56.1918H154.507L154.503 0Z" fill="#222222"/>
<path d="M243.628 30.6505V56.1923H236.005V49.7479C234.119 53.9918 229.089 56.821 223.116 56.821C215.021 56.821 209.677 51.9484 209.677 44.8753C209.677 37.252 215.729 32.5367 225.081 32.5367H233.333C235.14 32.5367 236.005 31.5937 236.005 30.1792C236.005 25.3851 232.547 22.0843 226.417 22.0843C220.916 22.0843 216.907 25.5422 216.672 29.5503H209.599C210.227 21.7699 217.3 15.9543 226.652 15.9543C236.865 15.9543 243.628 21.8485 243.628 30.6505ZM236.005 38.8239V37.8809H225.788C220.601 37.8809 217.222 40.5528 217.222 44.7182C217.222 48.3333 220.208 50.7696 224.609 50.7696C231.839 50.7696 236.001 46.1328 236.001 38.8239H236.005Z" fill="#222222"/>
<path d="M258.085 50.2975V56.1918H250.462V0H258.085V22.3981C260.365 18.5472 265.158 15.9537 270.582 15.9537C282.685 15.9537 289.521 24.5986 289.521 36.387C289.521 48.1755 282.685 56.8205 270.502 56.8205C265.241 56.8205 260.365 54.2269 258.085 50.2975ZM281.82 36.387C281.82 28.1352 276.946 22.6339 269.637 22.6339C262.25 22.6339 257.457 28.1352 257.457 36.387C257.457 44.6389 262.25 50.1402 269.637 50.1402C276.946 50.1402 281.82 44.6389 281.82 36.387Z" fill="#222222"/>
<path d="M294.712 0H302.334V56.1918H294.712V0Z" fill="#222222"/>
<path d="M345.944 43.3036C344.531 51.4768 337.38 56.821 327.638 56.821C315.377 56.821 307.753 47.1545 307.753 36.1518C307.753 25.0707 314.67 15.9543 326.853 15.9543C339.108 15.9543 345.632 24.6777 345.632 34.7372C345.632 35.7589 345.552 37.0165 345.474 37.7236H315.217C315.845 45.1896 320.718 50.298 327.632 50.298C333.446 50.298 337.217 47.7832 338.317 43.3036H345.944ZM315.455 32.1439H337.938C337.47 26.0925 333.379 22.0843 326.86 22.0843C320.646 22.0843 316.635 25.5422 315.455 32.1439Z" fill="#222222"/>
<path d="M203.78 21.0025V29.5688H195.371V21.0025H203.78ZM203.78 47.723V56.191H195.371V47.7033L203.78 47.723Z" fill="#222222"/>
</svg>
